<svg width="19" height="18" viewBox="0 0 19 18" fill="none" xmlns="http://www.w3.org/2000/svg">
<path d="M17.0736 8.07538L13.9095 10.8056L14.8735 14.8887C14.9267 15.1103 14.913 15.3428 14.8341 15.5566C14.7553 15.7705 14.6148 15.9562 14.4305 16.0903C14.2461 16.2244 14.0262 16.3008 13.7984 16.3099C13.5707 16.3191 13.3453 16.2605 13.1508 16.1416L9.60005 13.9563L6.04716 16.1416C5.8527 16.2598 5.62761 16.3178 5.40025 16.3084C5.17288 16.2989 4.9534 16.2223 4.76945 16.0884C4.58549 15.9544 4.44529 15.769 4.36649 15.5555C4.28769 15.342 4.27381 15.11 4.32662 14.8887L5.29412 10.8056L2.13005 8.07538C1.958 7.92668 1.83356 7.73058 1.77229 7.51158C1.71102 7.29258 1.71563 7.06038 1.78553 6.84398C1.85544 6.62758 1.98755 6.43657 2.16537 6.29481C2.34319 6.15304 2.55883 6.06681 2.78537 6.04687L6.9338 5.71218L8.53412 1.83937C8.62074 1.6283 8.76817 1.44776 8.95766 1.3207C9.14715 1.19364 9.37015 1.12579 9.5983 1.12579C9.82644 1.12579 10.0494 1.19364 10.2389 1.3207C10.4284 1.44776 10.5759 1.6283 10.6625 1.83937L12.2621 5.71218L16.4105 6.04687C16.6375 6.06607 16.8538 6.15182 17.0322 6.29339C17.2107 6.43496 17.3434 6.62604 17.4138 6.8427C17.4841 7.05937 17.489 7.29197 17.4277 7.51137C17.3664 7.73077 17.2418 7.92722 17.0694 8.07609L17.0736 8.07538Z" fill="#F5C518"/>
</svg>
