<svg width="16" height="16" viewBox="0 0 16 16" fill="none" xmlns="http://www.w3.org/2000/svg">
<path d="M15.4735 7.07538L12.3094 9.80562L13.2734 13.8887C13.3266 14.1103 13.3129 14.3428 13.234 14.5566C13.1552 14.7705 13.0147 14.9562 12.8304 15.0903C12.646 15.2244 12.4261 15.3008 12.1983 15.3099C11.9706 15.3191 11.7452 15.2605 11.5507 15.1416L7.99996 12.9563L4.44707 15.1416C4.2526 15.2598 4.02751 15.3178 3.80015 15.3084C3.57278 15.2989 3.3533 15.2223 3.16935 15.0884C2.98539 14.9544 2.84519 14.769 2.76639 14.5555C2.68759 14.342 2.67372 14.11 2.72652 13.8887L3.69402 9.80562L0.529956 7.07538C0.3579 6.92668 0.233466 6.73058 0.172194 6.51158C0.110922 6.29258 0.115527 6.06038 0.185436 5.84398C0.255344 5.62758 0.387456 5.43657 0.565273 5.29481C0.743091 5.15304 0.958733 5.06681 1.18527 5.04687L5.33371 4.71218L6.93402 0.839368C7.02064 0.628302 7.16807 0.447761 7.35756 0.320699C7.54705 0.193637 7.77005 0.125793 7.9982 0.125793C8.22635 0.125793 8.44934 0.193637 8.63884 0.320699C8.82833 0.447761 8.97576 0.628302 9.06238 0.839368L10.662 4.71218L14.8104 5.04687C15.0374 5.06607 15.2537 5.15182 15.4321 5.29339C15.6106 5.43496 15.7433 5.62604 15.8137 5.8427C15.884 6.05937 15.8889 6.29197 15.8276 6.51137C15.7663 6.73077 15.6417 6.92722 15.4693 7.07609L15.4735 7.07538Z" fill="#F5C518"/>
</svg>
